#N canvas 599 132 450 300 10;
#X obj 52 105 inlet~;
#X obj 99 105 inlet~;
#X obj 185 68 inlet~;
#X obj 75 232 outlet~;
#X obj 90 163 *~;
#X obj 75 206 +~;
#X obj 60 163 *~;
#X floatatom 75 60 5 0 0 0 - - -, f 5;
#X msg 75 39 1;
#X obj 75 18 loadbang;
#X obj 75 81 sig~;
#X obj 75 141 -~;
#X obj 179 99 clip~ 0 1;
#X connect 0 0 6 0;
#X connect 1 0 4 0;
#X connect 2 0 12 0;
#X connect 4 0 5 1;
#X connect 5 0 3 0;
#X connect 6 0 5 0;
#X connect 7 0 10 0;
#X connect 8 0 7 0;
#X connect 9 0 8 0;
#X connect 10 0 11 0;
#X connect 11 0 6 1;
#X connect 12 0 4 1;
#X connect 12 0 11 1;
